<?xml version="1.0" encoding="UTF-8"?>
<!DOCTYPE svg PUBLIC "-//W3C//DTD SVG 1.1//EN" "http://www.w3.org/Graphics/SVG/1.1/DTD/svg11.dtd">
<!-- Creator: CorelDRAW -->
<svg xmlns="http://www.w3.org/2000/svg" xml:space="preserve" width="67.9849mm" height="29.6424mm" version="1.1" style="shape-rendering:geometricPrecision; text-rendering:geometricPrecision; image-rendering:optimizeQuality; fill-rule:evenodd; clip-rule:evenodd"
viewBox="0 0 6851.9 2987.53"
 xmlns:xlink="http://www.w3.org/1999/xlink"
 xmlns:xodm="http://www.corel.com/coreldraw/odm/2003">
 <defs>
  <style type="text/css">
   <![CDATA[
    .str0 {stroke:#8EAB43;stroke-width:50.39;stroke-miterlimit:22.9256}
    .fil2 {fill:#8EAB43}
    .fil1 {fill:#007F4B}
    .fil0 {fill:#007F4B;fill-rule:nonzero}
   ]]>
  </style>
 </defs>
 <g id="Layer_x0020_1">
  <metadata id="CorelCorpID_0Corel-Layer"/>
  <g id="_1946961267888">
   <path class="fil0" d="M1290.61 2099.1l0 -898.21 327.13 0c100.27,0 177.24,18.38 231.13,55.16 53.88,36.57 80.82,88.52 80.82,155.22 0,48.54 -16.47,90.88 -49.18,127.22 -32.93,36.34 -74.62,61.58 -125.72,75.69l0 2.56c63.93,7.91 115.04,31.65 153.3,70.77 38.06,39.35 57.3,87.03 57.3,143.47 0,82.32 -29.5,147.53 -88.3,195.86 -59.01,48.1 -139.41,72.26 -241.18,72.26l-345.3 0zm202.48 -749.19l0 212.95 88.94 0c41.69,0 74.62,-10.05 98.57,-30.36 24.16,-20.31 36.13,-48.1 36.13,-83.6 0,-66.06 -49.38,-98.99 -147.95,-98.99l-75.69 0zm0 363.26l0 236.91 109.68 0c46.61,0 83.38,-10.9 109.9,-32.71 26.52,-21.6 39.77,-51.32 39.77,-88.94 0,-35.92 -13.04,-63.93 -39.12,-84.46 -26.31,-20.53 -62.65,-30.79 -109.47,-30.79l-110.75 0z"/>
   <path id="_1" class="fil0" d="M2108.37 1356.11c-33.36,0 -60.72,-9.84 -81.89,-29.72 -21.39,-19.88 -32.07,-44.04 -32.07,-72.91 0,-29.71 10.68,-53.88 32.07,-72.7 21.16,-18.81 48.53,-28.22 81.89,-28.22 33.99,0 61.36,9.41 82.53,28.22 20.95,18.82 31.64,42.99 31.64,72.7 0,29.93 -10.68,54.74 -31.64,73.98 -21.18,19.04 -48.54,28.65 -82.53,28.65zm97.71 742.99l-197.77 0 0 -641.43 197.77 0 0 641.43z"/>
   <path id="_2" class="fil0" d="M2906.68 2099.1l-197.35 0 0 -356.42c0,-99.42 -35.5,-149.03 -106.48,-149.03 -34.21,0 -62.44,13.04 -84.46,39.35 -22.23,26.29 -33.35,59.87 -33.35,100.27l0 365.83 -197.77 0 0 -641.43 197.77 0 0 101.56 2.56 0c47.26,-78.26 115.89,-117.17 206.12,-117.17 141.97,0 212.96,88.1 212.96,264.27l0 392.77z"/>
   <path id="_3" class="fil0" d="M4324.1 2099.1l-197.34 0 0 -97.71 -2.99 0c-48.96,75.48 -114.18,113.32 -196.07,113.32 -148.81,0 -223,-90.02 -223,-270.04l0 -387 197.34 0 0 369.46c0,90.66 35.92,135.99 107.76,135.99 35.5,0 63.72,-12.41 85.1,-37.21 21.38,-24.79 31.86,-58.58 31.86,-101.13l0 -367.11 197.34 0 0 641.43z"/>
   <path id="_4" class="fil0" d="M5032.83 2099.1l-197.99 0 0 -88.31 -2.35 0c-45.11,69.28 -111.4,103.92 -198.63,103.92 -80.18,0 -144.75,-28.23 -193.5,-84.88 -48.96,-56.45 -73.34,-135.56 -73.34,-237.12 0,-106.05 26.94,-190.94 80.82,-254.87 53.88,-63.93 124.44,-95.79 211.67,-95.79 82.74,0 140.26,29.51 172.98,88.95l2.35 0 0 -381.44 197.99 0 0 949.53zm-194.14 -311.95l0 -48.32c0,-41.69 -12.18,-76.33 -36.34,-103.91 -24.17,-27.59 -55.8,-41.27 -94.51,-41.27 -43.83,0 -78.26,17.1 -102.84,51.53 -24.59,34.64 -36.99,81.89 -36.99,141.97 0,56.45 11.97,99.85 35.7,130.21 23.95,30.57 56.88,45.76 99,45.76 40.19,0 72.91,-16.03 98.13,-48.12 25.23,-32.28 37.84,-74.83 37.84,-127.86z"/>
   <path id="_5" class="fil0" d="M5741.54 2099.1l-197.99 0 0 -88.31 -2.35 0c-45.11,69.28 -111.4,103.92 -198.63,103.92 -80.18,0 -144.75,-28.23 -193.5,-84.88 -48.96,-56.45 -73.34,-135.56 -73.34,-237.12 0,-106.05 26.94,-190.94 80.82,-254.87 53.88,-63.93 124.44,-95.79 211.67,-95.79 82.74,0 140.26,29.51 172.98,88.95l2.35 0 0 -381.44 197.99 0 0 949.53zm-194.14 -311.95l0 -48.32c0,-41.69 -12.18,-76.33 -36.34,-103.91 -24.17,-27.59 -55.8,-41.27 -94.51,-41.27 -43.83,0 -78.26,17.1 -102.84,51.53 -24.59,34.64 -36.99,81.89 -36.99,141.97 0,56.45 11.97,99.85 35.7,130.21 23.95,30.57 56.88,45.76 99,45.76 40.19,0 72.91,-16.03 98.13,-48.12 25.23,-32.28 37.84,-74.83 37.84,-127.86z"/>
   <path id="_6" class="fil0" d="M6433.36 1457.67l-260.64 692.74c-62.64,166.56 -156.93,249.95 -283.08,249.95 -47.89,0 -87.45,-5.34 -118.45,-16.25l0 -157.79c26.52,15.39 54.95,23.09 85.95,23.09 50.89,0 86.38,-23.95 106.48,-72.06l33.78 -79.53 -260.64 -640.15 219.37 0 119.52 390.2c7.49,24.16 13.48,52.81 17.54,85.95l2.56 0c3.85,-24.37 10.69,-52.59 20.74,-84.67l120.8 -391.48 196.07 0z"/>
   <path id="_7" class="fil0" d="M2997.05 2099.1l0 -898.21 327.13 0c100.27,0 177.24,18.38 231.13,55.16 53.88,36.57 80.82,88.52 80.82,155.22 0,48.54 -16.47,90.88 -49.18,127.22 -32.93,36.34 -74.62,61.58 -125.72,75.69l0 2.56c63.93,7.91 115.04,31.65 153.3,70.77 38.06,39.35 57.3,87.03 57.3,143.47 0,82.32 -29.5,147.53 -88.3,195.86 -59.01,48.1 -139.41,72.26 -241.18,72.26l-345.3 0zm202.48 -749.19l0 212.95 88.94 0c41.69,0 74.62,-10.05 98.57,-30.36 24.16,-20.31 36.13,-48.1 36.13,-83.6 0,-66.06 -49.38,-98.99 -147.95,-98.99l-75.69 0zm0 363.26l0 236.91 109.68 0c46.61,0 83.38,-10.9 109.9,-32.71 26.52,-21.6 39.77,-51.32 39.77,-88.94 0,-35.92 -13.04,-63.93 -39.12,-84.46 -26.31,-20.53 -62.65,-30.79 -109.47,-30.79l-110.75 0z"/>
   <path class="fil1" d="M564.52 128.9c-116.27,-0.32 -466.88,-13.53 -548.12,13.88 -27.79,84.73 -13.53,201.55 -5.79,291.49 87.06,30.75 2000.67,27.51 2032.39,4.53 33.24,-48.12 56.4,-229.65 3.51,-295.31 -36.26,-30.64 -459.7,-14.99 -541.74,-15.29 -4.96,-120.1 -11.31,-128.2 -130.37,-128.2l-684.59 0.02c-121.26,0.04 -111.45,18.18 -125.3,128.88z"/>
   <path class="fil2 str0" d="M269.84 2868.95l1035.5 2.8c-20.62,-398.71 122.85,-539.75 510.6,-531.58l16.61 -173.78 -70.9 -3.38 -14.04 100.17c-349.28,0.6 -513.39,190.34 -522.6,533.72 -151.89,0.97 -789.87,18.89 -888.77,-6.94l-159.74 -2199.95 1692.35 0.37 -40.5 550.4 68.87 -2.06 53.22 -622.06 -1851.28 -0.25 170.67 2352.54z"/>
   <polygon class="fil1" points="639.59,197.39 77.08,201.54 74.62,372.75 1993,375.02 1997.46,201.33 1440.05,200.61 1427.98,77.59 644.85,75.79 "/>
   <path class="fil1" d="M1611.06 2524.08l-142.54 0.38c-12.74,-27.25 -53.02,-20.02 -52.82,11.44 0.1,14.28 9.53,24.64 21.95,27.2 16.25,3.33 25.66,-5.95 31.48,-17.09l209.89 1.17c35.07,0.24 65.79,9.7 91.05,23.18 76.3,40.77 111.01,149.38 63.18,231.08 -28.44,48.58 -33.23,43.09 -72.07,43.09 -73.79,-0.06 -113.6,8.31 -161.33,-32.23 -26.24,-22.27 -44.28,-63.55 -41.86,-101.47 1.07,-17.08 6.16,-26.72 8.48,-40.79 56.97,-4.77 30.73,-71.05 -7.25,-54.57 -6.91,3.02 -13.59,10.14 -15.55,17.51 -3.75,13.97 3.67,19.15 2.82,27.69 -1.1,11.12 -10.98,19.53 -10.89,60.26 0.08,52.97 28.86,91.09 54.99,113.03 49.14,41.26 115.93,34.42 184.99,34.36l47.3 0.14c14.22,0.06 21.57,2.8 29.35,-5.15 13.72,-14.05 2.88,-18.03 46.03,-5.25 30.52,9.03 27.81,3.83 38.63,-21.5 4.73,-11.02 18.26,-39.96 19.23,-51.88 -7.69,-12.34 -38.68,-24.1 -49.9,-33.04l-1.03 -67.75 50.16 -29.11c1.31,-14.19 -17.22,-54.92 -24.81,-71.74 -14.19,-31.46 -53.11,15.66 -71.56,-3.06 -5.49,-5.55 -8.04,-11.18 -19.12,-22.02l-22.09 -20.04c-0.97,-16.62 14.46,-43.49 11.2,-60.02 -13.04,-10.23 -39.93,-17.95 -57.2,-24.83 -26.45,-10.52 -20.31,-11.76 -42.95,27.94 -5.62,9.88 -6.63,17.5 -21.39,16.1 -21.06,-1.97 -21.78,-3.75 -32.02,8.45 -20.71,24.6 -22.35,18.53 -64.34,18.53z"/>
   <g>
    <path class="fil1" d="M1511.37 2852.71c3.39,9.74 29.29,33.28 41.75,42.79 -0.18,20.28 -14.12,42.25 -11.93,62.04 91.95,41.32 74.16,39.29 101.13,-6.07 12.26,-20.6 8.18,-13.55 44.08,-11.92 5.53,-6.31 21.7,-26.35 31.5,-27.08 17.37,-1.27 41.61,0.17 59.74,0.25 40.07,0.16 81.43,-0.86 121.33,0.42 9.7,9.19 12.32,19.45 32.8,16.57 33.15,-4.69 33.49,-54.75 -0.56,-58.78 -7.25,-0.88 -14.74,0.73 -20.15,3.63 -7.3,3.92 -7.74,7.81 -12.08,12.94 -44.82,0 -209.01,3.06 -239.82,-1.28 -57.3,-8.03 -120.42,-56.14 -133.64,-108.4 -10.83,-29.86 -12.34,-61 -7.37,-92.85 3.94,-25.24 22.94,-60.58 34.91,-74.54 8.96,-21.8 25.84,-19.47 37.46,-19.29 19.16,0.28 38.39,0.02 57.58,0.22 41.07,0.43 65.07,-2.43 98.94,16.43 43.26,24.1 83.78,86.72 55.29,156.22 -30.1,3.02 -41.66,32.76 -21.93,50.73 20.09,18.32 54.5,2.52 48.64,-27.53 -1.66,-8.55 -5.11,-8.67 -2.66,-17.73 5.52,-20.43 10.87,-28.04 9.23,-58.88 -3.81,-71.87 -57.84,-133.77 -134.06,-141.95 -26.59,-2.85 -62.84,-0.62 -90.47,-0.5 -7.83,0.04 -83.74,-1.64 -90.8,2.32 -3.14,1.82 -0.84,0.02 -3.62,2.63 -10.88,10.38 -4.63,15.32 -29.77,8.13 -25.7,-7.32 -38.92,-14.42 -46.3,0.38 -5.93,11.85 -27.96,65.48 -24.73,71.46 10.19,9.86 36.15,20.59 48.7,30.67 0.35,7.91 0.16,63.42 -0.77,68.05 -12.36,10.94 -37.3,18.82 -48.09,30.85 -3.14,6.73 21.11,62.97 25.28,71.28 10.64,21.24 45.96,-9.99 70.42,-1.2zm13.02 8.44l-0.12 -0.26 0.02 0 -0.02 -0.02 -2.94 -1.32 2.92 1.32 -0.04 -0.1 0.06 0.1 0.12 0.28zm-0.44 -0.8l-0.02 -0.04 0.06 0.04 0.12 0.07 -0.1 -0.07 0 0.02 -0.06 -0.02zm-0.18 -0.14l-0.14 -0.06 0.32 0.2 -0.02 -0.04 -0.16 -0.1zm-0.14 -0.06l0.14 0.06c-0.68,-0.42 -1.24,-0.73 -0.14,-0.06z"/>
   </g>
   <path class="fil1" d="M1549.38 2516.92c10.58,0.87 99.95,3.24 107.57,-0.96l19.01 -19.75c-31.59,-0.85 -23.23,6.97 -39.47,-22.63 -14.65,-26.72 -13.3,-31.39 -35.23,-21.75 -8.04,3.54 -15.18,6.12 -23.16,9.52 -7.86,3.35 -15.1,6.75 -23.24,9.92 -10.45,4.05 -16.4,4.21 -13.63,18.69 1.24,6.49 5.49,22.34 8.15,26.96z"/>
   <path class="fil1" d="M1695.33 2938.61l22.83 -1.49c21.19,22.48 20.62,56.61 42.74,49.43 9.67,-3.14 65.48,-24.97 68.35,-31.19 1.9,-11.84 -4.56,-26.84 -7.68,-37.26l-93.3 0.22c-15.15,0.06 -25.05,5.35 -32.95,20.3z"/>
   <polygon class="fil1" points="6535.27,1404.48 6286.75,1341.04 6696.63,863.13 6618.1,1262.13 6851.9,1309.68 6408.96,1833.88 "/>
  </g>
 </g>
</svg>
